<?xml version="1.0" standalone="no"?>
<!DOCTYPE svg PUBLIC "-//W3C//DTD SVG 20010904//EN"
 "http://www.w3.org/TR/2001/REC-SVG-20010904/DTD/svg10.dtd">
<svg version="1.0" xmlns="http://www.w3.org/2000/svg"
 width="1920.000000pt" height="1080.000000pt" viewBox="0 0 1920.000000 1080.000000"
 preserveAspectRatio="xMidYMid meet">

<g transform="translate(0.000000,1080.000000) scale(0.100000,-0.100000)"
fill="#000000" stroke="none">
<path d="M6190 2375 c-10 -12 -11 -46 -6 -143 4 -70 9 -143 12 -163 7 -43
-118 -12 899 -225 143 -30 268 -56 277 -58 11 -3 26 7 38 23 l19 28 113 -23
c62 -13 122 -24 134 -24 15 0 47 36 118 132 l97 132 -6 151 c-4 82 -8 156 -10
163 -10 29 -36 6 -113 -97 -45 -61 -89 -114 -99 -119 -12 -6 -47 -4 -103 8
-155 32 -158 32 -184 3 l-25 -26 -93 17 c-51 10 -203 40 -338 66 -135 26 -346
67 -469 90 -187 36 -225 46 -229 62 -5 22 -15 23 -32 3z"/>
</g>
</svg>
