<?xml version="1.0" standalone="no"?>
<!DOCTYPE svg PUBLIC "-//W3C//DTD SVG 20010904//EN"
 "http://www.w3.org/TR/2001/REC-SVG-20010904/DTD/svg10.dtd">
<svg version="1.0" xmlns="http://www.w3.org/2000/svg"
 width="1920.000000pt" height="1080.000000pt" viewBox="0 0 1920.000000 1080.000000"
 preserveAspectRatio="xMidYMid meet">

<g transform="translate(0.000000,1080.000000) scale(0.100000,-0.100000)"
fill="#000000" stroke="none">
<path d="M12306 5168 c-125 -54 -233 -97 -239 -96 -7 1 -25 -6 -41 -17 -26
-17 -27 -20 -11 -32 16 -11 17 -26 12 -148 -5 -122 -4 -136 12 -145 13 -7 72
15 242 91 123 55 236 105 251 112 31 13 34 25 43 203 8 158 18 157 -269 32z"/>
</g>
</svg>
