<?xml version="1.0" standalone="no"?>
<!DOCTYPE svg PUBLIC "-//W3C//DTD SVG 20010904//EN"
 "http://www.w3.org/TR/2001/REC-SVG-20010904/DTD/svg10.dtd">
<svg version="1.0" xmlns="http://www.w3.org/2000/svg"
 width="1920.000000pt" height="1080.000000pt" viewBox="0 0 1920.000000 1080.000000"
 preserveAspectRatio="xMidYMid meet">

<g transform="translate(0.000000,1080.000000) scale(0.100000,-0.100000)"
fill="#000000" stroke="none">
<path d="M10880 4012 c-16 -31 -28 -342 -14 -342 5 0 88 -14 184 -30 605 -104
591 -103 605 -83 12 17 34 338 23 348 -2 3 -26 7 -54 10 -27 4 -67 10 -89 15
-22 5 -166 29 -320 54 -154 26 -289 48 -301 51 -15 3 -24 -3 -34 -23z"/>
</g>
</svg>
