<?xml version="1.0" standalone="no"?>
<!DOCTYPE svg PUBLIC "-//W3C//DTD SVG 20010904//EN"
 "http://www.w3.org/TR/2001/REC-SVG-20010904/DTD/svg10.dtd">
<svg version="1.0" xmlns="http://www.w3.org/2000/svg"
 width="1920.000000pt" height="1080.000000pt" viewBox="0 0 1920.000000 1080.000000"
 preserveAspectRatio="xMidYMid meet">

<g transform="translate(0.000000,1080.000000) scale(0.100000,-0.100000)"
fill="#000000" stroke="none">
<path d="M11736 5743 c-33 -58 -67 -114 -75 -123 -29 -30 -43 -61 -33 -73 5
-7 6 -69 3 -140 -3 -71 -3 -131 0 -133 9 -5 21 11 56 76 16 30 48 89 71 131
44 79 45 83 57 282 4 66 2 87 -8 87 -6 0 -39 -48 -71 -107z"/>
</g>
</svg>
