<?xml version="1.0" standalone="no"?>
<!DOCTYPE svg PUBLIC "-//W3C//DTD SVG 20010904//EN"
 "http://www.w3.org/TR/2001/REC-SVG-20010904/DTD/svg10.dtd">
<svg version="1.0" xmlns="http://www.w3.org/2000/svg"
 width="1920.000000pt" height="1080.000000pt" viewBox="0 0 1920.000000 1080.000000"
 preserveAspectRatio="xMidYMid meet">

<g transform="translate(0.000000,1080.000000) scale(0.100000,-0.100000)"
fill="#000000" stroke="none">
<path d="M9536 3863 l-26 -14 0 -158 0 -158 51 -32 c28 -17 52 -31 55 -31 2 0
64 -35 137 -78 255 -151 297 -174 314 -170 16 3 18 19 21 150 2 138 4 148 23
159 21 11 21 11 -7 40 -15 15 -30 26 -34 24 -7 -4 -307 160 -446 245 -57 34
-63 36 -88 23z"/>
</g>
</svg>
