<?xml version="1.0" standalone="no"?>
<!DOCTYPE svg PUBLIC "-//W3C//DTD SVG 20010904//EN"
 "http://www.w3.org/TR/2001/REC-SVG-20010904/DTD/svg10.dtd">
<svg version="1.0" xmlns="http://www.w3.org/2000/svg"
 width="1920.000000pt" height="1080.000000pt" viewBox="0 0 1920.000000 1080.000000"
 preserveAspectRatio="xMidYMid meet">

<g transform="translate(0.000000,1080.000000) scale(0.100000,-0.100000)"
fill="#000000" stroke="none">
<path d="M7075 5459 c-17 -17 -38 -35 -48 -40 -11 -7 -82 -1 -217 17 -110 15
-203 25 -206 22 -7 -8 16 -311 24 -320 4 -3 93 -18 197 -33 105 -15 193 -29
197 -32 4 -2 30 17 58 43 l51 47 -7 146 c-9 186 -11 191 -49 150z"/>
</g>
</svg>
