<?xml version="1.0" standalone="no"?>
<!DOCTYPE svg PUBLIC "-//W3C//DTD SVG 20010904//EN"
 "http://www.w3.org/TR/2001/REC-SVG-20010904/DTD/svg10.dtd">
<svg version="1.0" xmlns="http://www.w3.org/2000/svg"
 width="1920.000000pt" height="1080.000000pt" viewBox="0 0 1920.000000 1080.000000"
 preserveAspectRatio="xMidYMid meet">

<g transform="translate(0.000000,1080.000000) scale(0.100000,-0.100000)"
fill="#000000" stroke="none">
<path d="M7160 6344 c-16 -4 -393 -34 -424 -34 -18 0 -18 -9 -12 -177 4 -98
10 -181 13 -186 3 -5 28 -6 57 -3 28 3 134 13 236 22 102 8 188 18 191 22 3 4
3 63 -2 132 -4 69 -8 149 -8 178 -1 54 -5 57 -51 46z"/>
</g>
</svg>
