<?xml version="1.0" standalone="no"?>
<!DOCTYPE svg PUBLIC "-//W3C//DTD SVG 20010904//EN"
 "http://www.w3.org/TR/2001/REC-SVG-20010904/DTD/svg10.dtd">
<svg version="1.0" xmlns="http://www.w3.org/2000/svg"
 width="1920.000000pt" height="1080.000000pt" viewBox="0 0 1920.000000 1080.000000"
 preserveAspectRatio="xMidYMid meet">

<g transform="translate(0.000000,1080.000000) scale(0.100000,-0.100000)"
fill="#000000" stroke="none">
<path d="M8120 5939 c-14 -6 -38 -17 -55 -25 -16 -7 -82 -31 -145 -53 -63 -22
-123 -43 -133 -46 -16 -7 -17 -20 -11 -189 4 -99 9 -184 13 -188 3 -4 69 16
146 43 77 28 160 57 185 65 25 8 50 17 56 21 7 6 8 68 5 193 -6 200 -7 201
-61 179z"/>
</g>
</svg>
