<?xml version="1.0" standalone="no"?>
<!DOCTYPE svg PUBLIC "-//W3C//DTD SVG 20010904//EN"
 "http://www.w3.org/TR/2001/REC-SVG-20010904/DTD/svg10.dtd">
<svg version="1.0" xmlns="http://www.w3.org/2000/svg"
 width="1920.000000pt" height="1080.000000pt" viewBox="0 0 1920.000000 1080.000000"
 preserveAspectRatio="xMidYMid meet">

<g transform="translate(0.000000,1080.000000) scale(0.100000,-0.100000)"
fill="#000000" stroke="none">
<path d="M11148 4909 c-17 -29 -24 -59 -14 -59 3 0 16 4 30 10 21 8 26 16 26
45 0 44 -19 46 -42 4z"/>
<path d="M11102 4779 c-18 -29 -30 -54 -27 -57 3 -3 25 -8 51 -12 53 -8 57 -4
52 66 -2 40 -7 49 -23 52 -14 1 -29 -12 -53 -49z"/>
</g>
</svg>
