<?xml version="1.0" standalone="no"?>
<!DOCTYPE svg PUBLIC "-//W3C//DTD SVG 20010904//EN"
 "http://www.w3.org/TR/2001/REC-SVG-20010904/DTD/svg10.dtd">
<svg version="1.0" xmlns="http://www.w3.org/2000/svg"
 width="1920.000000pt" height="1080.000000pt" viewBox="0 0 1920.000000 1080.000000"
 preserveAspectRatio="xMidYMid meet">

<g transform="translate(0.000000,1080.000000) scale(0.100000,-0.100000)"
fill="#000000" stroke="none">
<path d="M7634 2098 c-9 -14 -7 -130 2 -245 5 -63 9 -73 25 -73 11 0 20 -1 20
-2 1 -2 4 -57 8 -123 l6 -119 42 -9 c40 -8 41 -9 48 -55 l6 -48 102 -18 c56
-10 118 -22 137 -27 55 -13 348 -69 365 -69 9 0 15 9 15 24 0 13 8 38 17 55
17 29 17 31 1 43 -14 10 -18 32 -20 103 l-3 90 -65 11 c-36 6 -139 26 -230 43
-91 18 -194 37 -230 43 -76 12 -110 42 -110 96 0 27 -4 32 -25 32 -51 0 -75
60 -75 191 0 49 -21 82 -36 57z"/>
</g>
</svg>
