<?xml version="1.0" standalone="no"?>
<!DOCTYPE svg PUBLIC "-//W3C//DTD SVG 20010904//EN"
 "http://www.w3.org/TR/2001/REC-SVG-20010904/DTD/svg10.dtd">
<svg version="1.0" xmlns="http://www.w3.org/2000/svg"
 width="1920.000000pt" height="1080.000000pt" viewBox="0 0 1920.000000 1080.000000"
 preserveAspectRatio="xMidYMid meet">

<g transform="translate(0.000000,1080.000000) scale(0.100000,-0.100000)"
fill="#000000" stroke="none">
<path d="M14050 3349 c-5 -13 -55 -143 -109 -288 -55 -145 -104 -268 -110
-274 -11 -11 -104 2 -464 65 -179 31 -240 39 -246 30 -6 -10 -25 -9 -82 2 -74
14 -162 30 -339 61 -52 9 -112 20 -133 25 -21 4 -39 4 -43 -1 -6 -10 -25 -301
-20 -306 4 -4 383 -74 866 -159 180 -32 386 -64 411 -64 20 0 29 7 37 28 6 15
58 155 116 312 l105 285 15 149 c9 82 14 151 11 154 -2 3 -9 -6 -15 -19z"/>
</g>
</svg>
