<?xml version="1.0" standalone="no"?>
<!DOCTYPE svg PUBLIC "-//W3C//DTD SVG 20010904//EN"
 "http://www.w3.org/TR/2001/REC-SVG-20010904/DTD/svg10.dtd">
<svg version="1.0" xmlns="http://www.w3.org/2000/svg"
 width="1920.000000pt" height="1080.000000pt" viewBox="0 0 1920.000000 1080.000000"
 preserveAspectRatio="xMidYMid meet">

<g transform="translate(0.000000,1080.000000) scale(0.100000,-0.100000)"
fill="#000000" stroke="none">
<path d="M5052 4181 c-11 -6 -10 -38 4 -169 l17 -162 42 0 42 0 6 -51 c4 -29
9 -54 12 -57 3 -3 56 0 117 7 62 7 158 17 212 22 54 5 102 11 105 14 6 3 0
116 -14 251 -6 59 -7 60 -33 57 -15 -2 -105 -12 -200 -21 -141 -15 -175 -16
-184 -5 -6 7 -19 13 -29 13 -15 0 -19 8 -19 40 0 38 -2 40 -29 40 -18 0 -31 6
-33 15 -2 9 -8 11 -16 6z"/>
</g>
</svg>
