<?xml version="1.0" standalone="no"?>
<!DOCTYPE svg PUBLIC "-//W3C//DTD SVG 20010904//EN"
 "http://www.w3.org/TR/2001/REC-SVG-20010904/DTD/svg10.dtd">
<svg version="1.0" xmlns="http://www.w3.org/2000/svg"
 width="1920.000000pt" height="1080.000000pt" viewBox="0 0 1920.000000 1080.000000"
 preserveAspectRatio="xMidYMid meet">

<g transform="translate(0.000000,1080.000000) scale(0.100000,-0.100000)"
fill="#000000" stroke="none">
<path d="M12450 4542 c-25 -1 -142 -12 -260 -23 -118 -11 -256 -23 -306 -26
l-92 -6 -6 -111 c-13 -248 -14 -246 49 -246 24 0 103 6 177 14 73 8 220 23
326 33 107 10 198 21 204 24 5 3 14 72 20 153 13 169 7 196 -39 193 -15 -1
-48 -3 -73 -5z"/>
</g>
</svg>
