<?xml version="1.0" standalone="no"?>
<!DOCTYPE svg PUBLIC "-//W3C//DTD SVG 20010904//EN"
 "http://www.w3.org/TR/2001/REC-SVG-20010904/DTD/svg10.dtd">
<svg version="1.0" xmlns="http://www.w3.org/2000/svg"
 width="1920.000000pt" height="1080.000000pt" viewBox="0 0 1920.000000 1080.000000"
 preserveAspectRatio="xMidYMid meet">

<g transform="translate(0.000000,1080.000000) scale(0.100000,-0.100000)"
fill="#000000" stroke="none">
<path d="M7542 6891 c-17 -10 -5 -326 12 -339 6 -5 119 -55 251 -112 132 -56
300 -129 374 -162 74 -32 137 -55 140 -51 3 4 4 82 1 173 -5 163 -5 164 -30
177 -14 7 -144 63 -290 123 -146 61 -274 115 -285 120 -11 5 -45 19 -75 31
-30 12 -62 28 -70 35 -9 7 -21 10 -28 5z"/>
</g>
</svg>
