<?xml version="1.0" standalone="no"?>
<!DOCTYPE svg PUBLIC "-//W3C//DTD SVG 20010904//EN"
 "http://www.w3.org/TR/2001/REC-SVG-20010904/DTD/svg10.dtd">
<svg version="1.0" xmlns="http://www.w3.org/2000/svg"
 width="1920.000000pt" height="1080.000000pt" viewBox="0 0 1920.000000 1080.000000"
 preserveAspectRatio="xMidYMid meet">

<g transform="translate(0.000000,1080.000000) scale(0.100000,-0.100000)"
fill="#000000" stroke="none">
<path d="M10010 5878 c-57 -79 -137 -190 -178 -247 l-75 -103 -76 3 -76 4 -5
-70 c-3 -38 -4 -118 -2 -177 4 -125 3 -124 103 -133 l64 -6 22 33 c24 38 114
167 192 278 29 41 72 104 96 140 l43 65 7 178 c4 109 3 177 -3 177 -5 0 -55
-64 -112 -142z"/>
</g>
</svg>
