<?xml version="1.0" standalone="no"?>
<!DOCTYPE svg PUBLIC "-//W3C//DTD SVG 20010904//EN"
 "http://www.w3.org/TR/2001/REC-SVG-20010904/DTD/svg10.dtd">
<svg version="1.0" xmlns="http://www.w3.org/2000/svg"
 width="1920.000000pt" height="1080.000000pt" viewBox="0 0 1920.000000 1080.000000"
 preserveAspectRatio="xMidYMid meet">

<g transform="translate(0.000000,1080.000000) scale(0.100000,-0.100000)"
fill="#000000" stroke="none">
<path d="M9590 2189 l0 -160 48 -52 c26 -29 63 -70 82 -92 18 -22 64 -75 103
-117 38 -42 80 -91 93 -109 13 -18 27 -35 32 -38 4 -3 32 -35 62 -71 30 -36
91 -103 136 -149 l81 -83 554 152 c305 83 572 156 594 161 51 13 65 25 65 58
0 25 6 29 78 50 133 38 122 25 123 143 0 57 4 129 8 161 6 52 5 59 -17 80 -22
20 -25 21 -36 5 -7 -9 -40 -25 -74 -34 -47 -13 -62 -22 -64 -38 -2 -11 -15
-27 -30 -34 -16 -7 -28 -17 -28 -22 0 -5 -15 -13 -32 -18 -84 -26 -417 -120
-483 -137 -27 -7 -99 -27 -160 -45 -60 -17 -123 -35 -140 -40 -100 -27 -282
-79 -295 -84 -21 -9 -101 64 -258 233 -77 83 -132 135 -142 133 -10 -2 -68 56
-154 153 -76 85 -140 155 -142 155 -2 0 -4 -72 -4 -161z"/>
</g>
</svg>
