<?xml version="1.0" standalone="no"?>
<!DOCTYPE svg PUBLIC "-//W3C//DTD SVG 20010904//EN"
 "http://www.w3.org/TR/2001/REC-SVG-20010904/DTD/svg10.dtd">
<svg version="1.0" xmlns="http://www.w3.org/2000/svg"
 width="1920.000000pt" height="1080.000000pt" viewBox="0 0 1920.000000 1080.000000"
 preserveAspectRatio="xMidYMid meet">

<g transform="translate(0.000000,1080.000000) scale(0.100000,-0.100000)"
fill="#000000" stroke="none">
<path d="M9008 2157 c-5 -10 -8 -28 -8 -39 0 -12 -5 -50 -11 -85 -10 -57 -14
-64 -45 -79 -28 -13 -53 -15 -143 -9 l-110 7 -30 -31 -30 -30 -223 9 c-123 5
-349 14 -503 20 -507 18 -525 20 -525 41 0 14 -7 19 -25 19 l-25 0 1 -97 c1
-54 4 -138 8 -188 l6 -90 120 -6 c66 -4 226 -12 355 -18 129 -6 307 -16 395
-21 88 -5 228 -12 310 -16 l150 -6 11 31 c12 29 14 30 60 26 112 -10 234 -14
234 -8 0 3 11 75 25 160 23 137 25 167 18 291 -5 78 -11 129 -15 119z"/>
</g>
</svg>
