<?xml version="1.0" standalone="no"?>
<!DOCTYPE svg PUBLIC "-//W3C//DTD SVG 20010904//EN"
 "http://www.w3.org/TR/2001/REC-SVG-20010904/DTD/svg10.dtd">
<svg version="1.0" xmlns="http://www.w3.org/2000/svg"
 width="1920.000000pt" height="1080.000000pt" viewBox="0 0 1920.000000 1080.000000"
 preserveAspectRatio="xMidYMid meet">

<g transform="translate(0.000000,1080.000000) scale(0.100000,-0.100000)"
fill="#000000" stroke="none">
<path d="M12525 6315 c-3 -8 -7 -22 -10 -30 -2 -8 -12 -15 -21 -15 -9 0 -28
-7 -42 -15 -15 -8 -155 -40 -312 -71 -157 -31 -291 -61 -297 -67 -9 -6 -13
-42 -13 -112 0 -120 -4 -135 -36 -135 -31 0 -31 -13 1 -34 22 -14 25 -24 25
-71 0 -31 5 -55 10 -55 9 0 102 19 435 90 28 6 88 19 135 28 85 18 85 18 90
53 4 25 11 35 26 37 20 3 21 11 28 140 3 75 9 167 13 205 5 58 4 67 -11 67 -9
0 -19 -7 -21 -15z"/>
</g>
</svg>
