<?xml version="1.0" standalone="no"?>
<!DOCTYPE svg PUBLIC "-//W3C//DTD SVG 20010904//EN"
 "http://www.w3.org/TR/2001/REC-SVG-20010904/DTD/svg10.dtd">
<svg version="1.0" xmlns="http://www.w3.org/2000/svg"
 width="1920.000000pt" height="1080.000000pt" viewBox="0 0 1920.000000 1080.000000"
 preserveAspectRatio="xMidYMid meet">

<g transform="translate(0.000000,1080.000000) scale(0.100000,-0.100000)"
fill="#000000" stroke="none">
<path d="M12300 2165 c-140 -79 -262 -144 -270 -144 -8 0 -37 12 -65 28 l-50
29 -48 -26 c-45 -24 -50 -25 -75 -10 -15 8 -54 30 -87 48 -33 18 -67 38 -76
43 -10 7 -25 4 -48 -7 -31 -16 -34 -16 -64 3 l-31 20 -43 -26 -43 -25 -69 41
c-38 23 -72 41 -74 41 -7 0 -2 -72 8 -121 4 -20 7 -78 8 -128 l2 -93 57 -31
57 -32 45 25 c41 22 49 23 80 12 26 -10 41 -10 56 -2 16 9 32 4 87 -26 38 -21
85 -48 106 -61 l39 -24 54 28 54 28 53 -28 54 -28 134 77 c74 43 190 110 259
149 l125 72 8 134 c4 74 12 136 17 137 12 4 14 42 3 42 -5 -1 -123 -66 -263
-145z"/>
<path d="M11152 2170 c0 -14 2 -19 5 -12 2 6 2 18 0 25 -3 6 -5 1 -5 -13z"/>
</g>
</svg>
