<?xml version="1.0" standalone="no"?>
<!DOCTYPE svg PUBLIC "-//W3C//DTD SVG 20010904//EN"
 "http://www.w3.org/TR/2001/REC-SVG-20010904/DTD/svg10.dtd">
<svg version="1.0" xmlns="http://www.w3.org/2000/svg"
 width="1920.000000pt" height="1080.000000pt" viewBox="0 0 1920.000000 1080.000000"
 preserveAspectRatio="xMidYMid meet">

<g transform="translate(0.000000,1080.000000) scale(0.100000,-0.100000)"
fill="#000000" stroke="none">
<path d="M9442 1810 c4 -160 5 -168 37 -248 l33 -83 73 6 c68 7 72 6 78 -14 4
-18 12 -22 42 -19 l36 3 33 -85 c27 -68 38 -85 52 -83 11 2 45 6 77 9 l57 7
18 -42 17 -43 45 7 c42 6 110 14 385 50 260 34 350 47 353 50 3 2 7 64 10 137
3 94 9 136 18 143 9 6 10 15 5 24 -8 12 -27 11 -132 -3 -68 -9 -178 -23 -244
-32 -105 -13 -242 -31 -383 -50 l-43 -5 -20 48 -20 49 -70 -9 c-46 -6 -74 -5
-82 1 -7 6 -23 40 -37 76 -24 65 -25 66 -62 66 -32 0 -40 4 -48 25 -9 25 -13
26 -82 23 l-72 -3 -29 70 c-15 38 -33 74 -38 80 -7 7 -9 -43 -7 -155z"/>
</g>
</svg>
