<?xml version="1.0" standalone="no"?>
<!DOCTYPE svg PUBLIC "-//W3C//DTD SVG 20010904//EN"
 "http://www.w3.org/TR/2001/REC-SVG-20010904/DTD/svg10.dtd">
<svg version="1.0" xmlns="http://www.w3.org/2000/svg"
 width="1920.000000pt" height="1080.000000pt" viewBox="0 0 1920.000000 1080.000000"
 preserveAspectRatio="xMidYMid meet">

<g transform="translate(0.000000,1080.000000) scale(0.100000,-0.100000)"
fill="#000000" stroke="none">
<path d="M6853 2093 c4 -58 7 -125 7 -149 0 -24 6 -49 14 -57 8 -8 16 -36 17
-61 2 -26 8 -50 13 -54 6 -3 88 -37 181 -74 94 -38 177 -72 186 -77 12 -7 22
-3 38 19 26 36 26 47 2 55 -16 5 -20 20 -26 119 l-7 114 -185 74 c-124 48
-188 79 -191 90 -2 9 -10 19 -18 22 -9 3 -14 20 -14 46 0 23 -5 40 -12 40 -8
0 -9 -29 -5 -107z"/>
</g>
</svg>
