<?xml version="1.0" standalone="no"?>
<!DOCTYPE svg PUBLIC "-//W3C//DTD SVG 20010904//EN"
 "http://www.w3.org/TR/2001/REC-SVG-20010904/DTD/svg10.dtd">
<svg version="1.0" xmlns="http://www.w3.org/2000/svg"
 width="1920.000000pt" height="1080.000000pt" viewBox="0 0 1920.000000 1080.000000"
 preserveAspectRatio="xMidYMid meet">

<g transform="translate(0.000000,1080.000000) scale(0.100000,-0.100000)"
fill="#000000" stroke="none">
<path d="M12987 2708 c-36 -40 -110 -119 -164 -176 l-98 -103 -68 23 -69 23
-24 -28 c-12 -15 -28 -27 -35 -27 -7 0 -61 16 -120 35 -125 40 -126 40 -151
18 -15 -14 -24 -15 -55 -5 -48 15 -56 3 -47 -63 4 -27 8 -87 9 -132 1 -45 5
-88 8 -96 9 -23 56 -31 76 -13 15 14 29 11 144 -27 l126 -43 35 35 35 34 61
-20 61 -20 58 61 c32 34 105 112 162 174 116 125 115 124 118 295 1 37 7 76
13 87 9 13 9 23 2 30 -7 7 -31 -12 -77 -62z"/>
<path d="M11840 2493 c0 -28 12 -39 45 -41 17 -1 42 -11 57 -22 15 -11 34 -20
42 -20 9 0 20 -9 26 -21 16 -29 32 -19 37 22 l3 35 -97 32 c-115 37 -113 37
-113 15z"/>
<path d="M11897 2363 c-2 -5 -7 -20 -11 -34 -8 -35 -33 -44 -46 -19 -6 11 -15
20 -20 20 -12 0 -13 -100 -2 -116 6 -11 142 -64 162 -64 12 0 30 63 36 123 4
43 2 48 -21 57 -14 5 -25 15 -25 21 0 6 -9 9 -20 6 -11 -3 -20 -1 -20 4 0 11
-27 12 -33 2z"/>
</g>
</svg>
