<?xml version="1.0" standalone="no"?>
<!DOCTYPE svg PUBLIC "-//W3C//DTD SVG 20010904//EN"
 "http://www.w3.org/TR/2001/REC-SVG-20010904/DTD/svg10.dtd">
<svg version="1.0" xmlns="http://www.w3.org/2000/svg"
 width="1920.000000pt" height="1080.000000pt" viewBox="0 0 1920.000000 1080.000000"
 preserveAspectRatio="xMidYMid meet">

<g transform="translate(0.000000,1080.000000) scale(0.100000,-0.100000)"
fill="#000000" stroke="none">
<path d="M8522 1730 l3 -175 68 -3 c55 -2 67 -6 67 -20 0 -10 10 -22 23 -27
20 -9 23 -19 27 -95 l5 -85 68 -3 67 -3 0 -40 c0 -23 5 -42 13 -44 6 -2 165
-9 352 -14 217 -6 354 -14 378 -22 23 -8 41 -9 46 -3 11 10 16 120 13 245 l-2
86 -172 7 c-95 3 -270 9 -388 12 l-216 6 -12 26 c-7 14 -12 36 -12 49 0 21 -4
23 -58 23 -79 0 -92 15 -92 103 0 47 -4 67 -13 67 -6 0 -18 14 -25 30 -13 28
-17 30 -66 30 -29 0 -58 6 -64 12 -10 10 -12 -24 -10 -162z"/>
</g>
</svg>
