<?xml version="1.0" standalone="no"?>
<!DOCTYPE svg PUBLIC "-//W3C//DTD SVG 20010904//EN"
 "http://www.w3.org/TR/2001/REC-SVG-20010904/DTD/svg10.dtd">
<svg version="1.0" xmlns="http://www.w3.org/2000/svg"
 width="1920.000000pt" height="1080.000000pt" viewBox="0 0 1920.000000 1080.000000"
 preserveAspectRatio="xMidYMid meet">

<g transform="translate(0.000000,1080.000000) scale(0.100000,-0.100000)"
fill="#000000" stroke="none">
<path d="M13259 3402 c-42 -3 -47 -6 -52 -30 -3 -15 -5 -28 -4 -28 1 -1 25 -4
53 -8 l52 -6 4 35 c2 20 2 37 -1 38 -3 1 -27 1 -52 -1z"/>
<path d="M12867 3254 c5 -14 3 -16 -13 -9 -10 5 -79 10 -151 13 -130 4 -133 3
-133 -17 0 -12 -6 -21 -15 -21 -12 0 -15 -16 -15 -84 0 -46 3 -98 6 -115 l7
-32 75 3 76 3 13 50 c7 28 13 58 13 68 0 17 -2 17 -27 -3 l-27 -21 -8 22 c-13
34 58 104 109 107 20 2 40 5 45 8 5 3 14 2 21 -3 7 -5 19 -9 27 -8 8 1 21 3
28 3 7 1 11 6 7 12 -3 5 -12 7 -20 3 -11 -3 -13 -1 -9 10 3 8 1 18 -5 22 -7 4
-8 0 -4 -11z"/>
<path d="M13237 3222 c-24 -27 -21 -40 15 -62 38 -23 48 -14 48 43 0 36 -12
48 -26 26 -5 -8 -8 -8 -13 0 -5 8 -13 6 -24 -7z"/>
<path d="M12810 3105 c0 -8 9 -15 20 -15 24 0 27 15 4 24 -22 9 -24 8 -24 -9z"/>
<path d="M12959 3070 l-24 -19 38 -1 c39 0 47 10 23 29 -10 9 -19 7 -37 -9z"/>
<path d="M12825 3037 c-9 -22 -2 -62 10 -60 6 1 11 14 13 29 4 32 -14 56 -23
31z"/>
</g>
</svg>
