<?xml version="1.0" standalone="no"?>
<!DOCTYPE svg PUBLIC "-//W3C//DTD SVG 20010904//EN"
 "http://www.w3.org/TR/2001/REC-SVG-20010904/DTD/svg10.dtd">
<svg version="1.0" xmlns="http://www.w3.org/2000/svg"
 width="1920.000000pt" height="1080.000000pt" viewBox="0 0 1920.000000 1080.000000"
 preserveAspectRatio="xMidYMid meet">

<g transform="translate(0.000000,1080.000000) scale(0.100000,-0.100000)"
fill="#000000" stroke="none">
<path d="M13157 3864 c-9 -9 33 -45 44 -38 14 9 10 31 -7 38 -20 8 -29 8 -37
0z"/>
<path d="M13121 3810 c-8 -4 -52 -11 -99 -15 -98 -8 -122 -19 -122 -56 0 -44
-26 -56 -154 -70 -99 -10 -120 -15 -124 -31 -2 -10 -17 -20 -38 -24 -49 -9
-44 -34 22 -133 l56 -83 91 6 c114 9 127 12 127 37 0 10 5 19 10 19 6 0 10 9
10 19 0 11 4 22 9 25 4 3 11 27 15 53 8 58 30 93 48 75 16 -16 23 -15 41 3 8
8 32 17 54 20 21 3 48 7 61 9 12 2 25 -1 28 -5 8 -13 44 9 44 27 0 8 -4 12
-10 9 -5 -3 -10 2 -10 12 0 14 -2 15 -9 4 -11 -16 -31 -6 -31 16 0 13 -3 13
-15 3 -12 -10 -15 -9 -15 5 0 12 -4 15 -12 8 -11 -8 -94 -10 -108 -3 -3 2 -11
4 -19 4 -8 1 -16 6 -18 13 -5 14 42 25 120 28 32 1 63 7 69 13 13 13 -4 23
-21 12z"/>
<path d="M13062 3598 c-6 -6 -21 -16 -33 -22 -22 -10 -49 -60 -38 -70 2 -2 31
-1 64 2 58 7 60 8 63 38 2 24 -3 35 -21 47 -17 11 -27 13 -35 5z"/>
</g>
</svg>
