<?xml version="1.0" standalone="no"?>
<!DOCTYPE svg PUBLIC "-//W3C//DTD SVG 20010904//EN"
 "http://www.w3.org/TR/2001/REC-SVG-20010904/DTD/svg10.dtd">
<svg version="1.0" xmlns="http://www.w3.org/2000/svg"
 width="1920.000000pt" height="1080.000000pt" viewBox="0 0 1920.000000 1080.000000"
 preserveAspectRatio="xMidYMid meet">

<g transform="translate(0.000000,1080.000000) scale(0.100000,-0.100000)"
fill="#000000" stroke="none">
<path d="M13262 3218 c-11 -29 -34 -98 -52 -153 -18 -55 -39 -113 -47 -129
-14 -26 -17 -28 -61 -21 -26 3 -55 8 -64 11 -11 3 -18 0 -18 -9 0 -8 -9 -22
-20 -32 -17 -16 -26 -17 -77 -6 -31 6 -69 11 -85 11 -25 0 -28 -3 -28 -34 0
-26 5 -36 20 -41 11 -3 20 -11 20 -16 0 -5 9 -18 20 -29 18 -18 28 -50 15 -50
-3 0 -16 7 -29 15 l-24 16 -4 -62 c-7 -91 -2 -106 35 -113 114 -19 127 -19
127 1 0 11 6 27 13 36 10 15 20 16 71 7 33 -5 62 -8 64 -6 2 2 30 83 62 179
50 148 61 192 70 289 5 62 13 130 16 151 8 52 -1 46 -24 -15z"/>
<path d="M12710 2881 c-7 -15 -7 -21 0 -21 12 0 25 28 17 36 -3 3 -10 -4 -17
-15z"/>
<path d="M12595 2736 c2 -21 69 -65 81 -53 3 3 7 21 7 39 2 33 2 33 -44 34
-40 0 -45 -2 -44 -20z"/>
<path d="M12400 2658 c-17 -39 -13 -104 5 -86 6 6 19 118 13 118 -2 0 -10 -15
-18 -32z"/>
<path d="M12589 2645 c-1 -3 -3 -9 -4 -15 -1 -5 -3 -14 -4 -19 -1 -11 -41 -11
-41 0 0 4 -8 9 -17 13 -10 3 -23 8 -29 11 -7 3 -14 -5 -16 -20 -4 -20 -2 -24
12 -20 10 3 28 -6 46 -25 37 -37 71 -39 84 -4 14 36 12 66 -2 37 -17 -35 -30
-27 -22 12 3 19 3 35 0 35 -3 0 -7 -2 -7 -5z"/>
</g>
</svg>
