<?xml version="1.0" standalone="no"?>
<!DOCTYPE svg PUBLIC "-//W3C//DTD SVG 20010904//EN"
 "http://www.w3.org/TR/2001/REC-SVG-20010904/DTD/svg10.dtd">
<svg version="1.0" xmlns="http://www.w3.org/2000/svg"
 width="1920.000000pt" height="1080.000000pt" viewBox="0 0 1920.000000 1080.000000"
 preserveAspectRatio="xMidYMid meet">

<g transform="translate(0.000000,1080.000000) scale(0.100000,-0.100000)"
fill="#000000" stroke="none">
<path d="M10336 2014 c-3 -9 -6 -77 -6 -153 l0 -136 84 -84 84 -84 63 17 c60
17 62 17 82 -2 16 -17 24 -18 50 -9 30 10 33 8 105 -67 l74 -78 37 10 c20 6
50 15 67 20 29 9 35 7 65 -24 18 -19 41 -34 50 -34 10 0 57 13 106 29 48 16
111 35 138 44 144 44 383 119 406 128 26 10 26 12 33 142 3 72 11 136 16 141
16 16 12 36 -6 36 -9 0 -80 -20 -158 -44 -78 -24 -195 -61 -261 -81 -66 -21
-151 -48 -190 -60 l-70 -23 -45 43 -45 43 -64 -20 -63 -20 -72 71 c-70 70 -72
71 -106 61 -30 -9 -38 -7 -58 14 -24 23 -25 23 -84 8 l-60 -15 -72 72 c-74 73
-90 82 -100 55z"/>
</g>
</svg>
