<?xml version="1.0" standalone="no"?>
<!DOCTYPE svg PUBLIC "-//W3C//DTD SVG 20010904//EN"
 "http://www.w3.org/TR/2001/REC-SVG-20010904/DTD/svg10.dtd">
<svg version="1.0" xmlns="http://www.w3.org/2000/svg"
 width="1920.000000pt" height="1080.000000pt" viewBox="0 0 1920.000000 1080.000000"
 preserveAspectRatio="xMidYMid meet">

<g transform="translate(0.000000,1080.000000) scale(0.100000,-0.100000)"
fill="#000000" stroke="none">
<path d="M10335 4215 c-33 -25 -67 -53 -75 -63 -24 -27 -189 -152 -216 -162
-43 -17 -244 -174 -244 -192 0 -9 -4 -20 -10 -23 -6 -4 -10 -54 -10 -116 0
-119 0 -120 61 -123 19 0 34 5 37 13 3 8 0 11 -7 7 -15 -10 -14 5 2 29 7 11
14 36 15 54 2 19 4 36 5 38 8 7 47 -11 47 -23 0 -18 48 -30 63 -15 6 6 18 11
28 11 21 0 209 140 209 156 0 7 38 43 85 79 l85 67 0 77 c0 43 3 112 6 154 8
93 4 95 -81 32z"/>
<path d="M9800 3495 c0 -8 2 -15 4 -15 2 0 6 7 10 15 3 8 1 15 -4 15 -6 0 -10
-7 -10 -15z"/>
</g>
</svg>
