<?xml version="1.0" standalone="no"?>
<!DOCTYPE svg PUBLIC "-//W3C//DTD SVG 20010904//EN"
 "http://www.w3.org/TR/2001/REC-SVG-20010904/DTD/svg10.dtd">
<svg version="1.0" xmlns="http://www.w3.org/2000/svg"
 width="1920.000000pt" height="1080.000000pt" viewBox="0 0 1920.000000 1080.000000"
 preserveAspectRatio="xMidYMid meet">

<g transform="translate(0.000000,1080.000000) scale(0.100000,-0.100000)"
fill="#000000" stroke="none">
<path d="M10070 4070 c-88 -23 -366 -92 -822 -202 -102 -25 -98 -15 -98 -208
0 -94 4 -130 13 -139 8 -6 18 -7 23 -2 13 13 304 83 339 83 37 -1 337 75 345
87 3 5 74 26 158 47 l152 37 0 164 c0 89 -1 162 -2 162 -2 -1 -50 -14 -108
-29z"/>
</g>
</svg>
