<?xml version="1.0" standalone="no"?>
<!DOCTYPE svg PUBLIC "-//W3C//DTD SVG 20010904//EN"
 "http://www.w3.org/TR/2001/REC-SVG-20010904/DTD/svg10.dtd">
<svg version="1.0" xmlns="http://www.w3.org/2000/svg"
 width="1920.000000pt" height="1080.000000pt" viewBox="0 0 1920.000000 1080.000000"
 preserveAspectRatio="xMidYMid meet">

<g transform="translate(0.000000,1080.000000) scale(0.100000,-0.100000)"
fill="#000000" stroke="none">
<path d="M10180 4114 c-69 -30 -183 -80 -255 -111 -71 -30 -202 -86 -290 -123
-128 -54 -161 -72 -163 -89 -2 -12 -8 -21 -13 -21 -5 0 -9 -57 -9 -132 0 -126
1 -131 18 -115 10 10 24 17 30 17 7 0 12 3 12 8 0 10 50 32 74 32 11 0 27 -6
35 -14 14 -13 23 -11 71 11 30 14 73 29 95 34 53 10 259 100 288 126 12 12 67
40 122 63 55 23 106 47 113 52 13 12 18 318 5 318 -5 0 -64 -25 -133 -56z"/>
<path d="M9567 3543 c-12 -12 -7 -22 8 -17 8 4 15 10 15 15 0 11 -14 12 -23 2z"/>
</g>
</svg>
