<?xml version="1.0" standalone="no"?>
<!DOCTYPE svg PUBLIC "-//W3C//DTD SVG 20010904//EN"
 "http://www.w3.org/TR/2001/REC-SVG-20010904/DTD/svg10.dtd">
<svg version="1.0" xmlns="http://www.w3.org/2000/svg"
 width="1920.000000pt" height="1080.000000pt" viewBox="0 0 1920.000000 1080.000000"
 preserveAspectRatio="xMidYMid meet">

<g transform="translate(0.000000,1080.000000) scale(0.100000,-0.100000)"
fill="#000000" stroke="none">
<path d="M8390 4130 l0 -159 148 -47 c81 -26 152 -53 157 -59 13 -15 270 -98
310 -100 28 -1 134 -31 268 -76 93 -31 97 -25 97 129 0 117 -2 128 -20 140
-12 7 -18 17 -15 22 9 14 -4 19 -425 146 -67 20 -449 140 -507 159 -10 3 -13
-32 -13 -155z"/>
</g>
</svg>
