<?xml version="1.0" standalone="no"?>
<!DOCTYPE svg PUBLIC "-//W3C//DTD SVG 20010904//EN"
 "http://www.w3.org/TR/2001/REC-SVG-20010904/DTD/svg10.dtd">
<svg version="1.0" xmlns="http://www.w3.org/2000/svg"
 width="1920.000000pt" height="1080.000000pt" viewBox="0 0 1920.000000 1080.000000"
 preserveAspectRatio="xMidYMid meet">

<g transform="translate(0.000000,1080.000000) scale(0.100000,-0.100000)"
fill="#000000" stroke="none">
<path d="M4814 4028 c4 -35 9 -99 13 -143 3 -44 10 -89 16 -100 14 -28 275
-454 299 -488 13 -17 26 -26 36 -23 64 19 66 18 96 -29 48 -78 36 -76 208 -33
84 20 179 43 211 49 36 7 61 18 65 27 8 21 -15 293 -26 304 -4 4 -71 -8 -147
-26 -245 -60 -252 -61 -280 -46 -13 7 -36 31 -50 52 -24 35 -29 38 -59 32 -52
-9 -76 14 -172 169 -49 78 -112 177 -141 219 -29 43 -53 82 -53 88 0 5 -5 10
-11 10 -8 0 -10 -18 -5 -62z"/>
</g>
</svg>
