<?xml version="1.0" standalone="no"?>
<!DOCTYPE svg PUBLIC "-//W3C//DTD SVG 20010904//EN"
 "http://www.w3.org/TR/2001/REC-SVG-20010904/DTD/svg10.dtd">
<svg version="1.0" xmlns="http://www.w3.org/2000/svg"
 width="1920.000000pt" height="1080.000000pt" viewBox="0 0 1920.000000 1080.000000"
 preserveAspectRatio="xMidYMid meet">

<g transform="translate(0.000000,1080.000000) scale(0.100000,-0.100000)"
fill="#000000" stroke="none">
<path d="M8502 2264 l5 -149 87 -317 c48 -175 98 -343 111 -375 28 -69 31 -70
193 -53 128 13 331 34 537 54 709 71 645 62 645 96 0 30 -11 28 216 56 l41 5
8 160 c5 118 4 168 -5 190 -14 33 -22 36 -43 14 -9 -9 -54 -20 -113 -27 -78
-10 -98 -16 -102 -30 -2 -10 -11 -18 -20 -18 -8 0 -20 -7 -27 -16 -9 -13 -59
-22 -221 -40 -115 -12 -272 -30 -349 -38 -707 -79 -688 -78 -698 -61 -5 9 -18
20 -29 24 -24 9 -56 84 -99 239 -18 64 -36 122 -39 127 -4 6 -18 46 -30 90
-12 44 -28 100 -36 124 -8 25 -14 52 -14 62 0 10 -5 21 -11 25 -9 5 -10 -32
-7 -142z"/>
</g>
</svg>
