<?xml version="1.0" standalone="no"?>
<!DOCTYPE svg PUBLIC "-//W3C//DTD SVG 20010904//EN"
 "http://www.w3.org/TR/2001/REC-SVG-20010904/DTD/svg10.dtd">
<svg version="1.0" xmlns="http://www.w3.org/2000/svg"
 width="1920.000000pt" height="1080.000000pt" viewBox="0 0 1920.000000 1080.000000"
 preserveAspectRatio="xMidYMid meet">

<g transform="translate(0.000000,1080.000000) scale(0.100000,-0.100000)"
fill="#000000" stroke="none">
<path d="M13573 5081 c-95 -47 -173 -91 -173 -97 0 -6 -77 -47 -170 -90 -128
-59 -172 -84 -175 -99 -9 -45 -16 -267 -8 -262 4 3 42 21 83 40 304 140 616
293 623 304 3 5 11 69 17 143 10 109 9 134 -2 141 -16 11 5 20 -195 -80z"/>
</g>
</svg>
