<?xml version="1.0" standalone="no"?>
<!DOCTYPE svg PUBLIC "-//W3C//DTD SVG 20010904//EN"
 "http://www.w3.org/TR/2001/REC-SVG-20010904/DTD/svg10.dtd">
<svg version="1.0" xmlns="http://www.w3.org/2000/svg"
 width="1920.000000pt" height="1080.000000pt" viewBox="0 0 1920.000000 1080.000000"
 preserveAspectRatio="xMidYMid meet">

<g transform="translate(0.000000,1080.000000) scale(0.100000,-0.100000)"
fill="#000000" stroke="none">
<path d="M12686 2465 c-3 -8 -12 -15 -21 -15 -10 0 -15 -10 -15 -32 0 -40 -7
-50 -42 -65 -16 -7 -28 -17 -28 -22 0 -5 -91 -58 -202 -116 -112 -59 -250
-133 -308 -163 -58 -31 -163 -86 -233 -123 l-129 -66 -46 22 c-26 13 -99 53
-162 90 -63 37 -129 76 -147 86 -17 10 -50 30 -73 44 -88 56 -111 66 -128 56
-11 -6 -24 -4 -42 9 -14 9 -111 69 -216 133 l-192 115 -7 -160 -7 -160 23 -16
c13 -10 98 -62 189 -118 91 -55 261 -160 378 -232 118 -73 253 -154 302 -180
l88 -47 119 61 c422 218 783 406 807 420 12 7 22 28 25 54 5 39 11 45 55 69
60 32 62 36 71 216 6 112 5 139 -6 146 -21 13 -46 11 -53 -6z"/>
</g>
</svg>
