<?xml version="1.0" standalone="no"?>
<!DOCTYPE svg PUBLIC "-//W3C//DTD SVG 20010904//EN"
 "http://www.w3.org/TR/2001/REC-SVG-20010904/DTD/svg10.dtd">
<svg version="1.0" xmlns="http://www.w3.org/2000/svg"
 width="1920.000000pt" height="1080.000000pt" viewBox="0 0 1920.000000 1080.000000"
 preserveAspectRatio="xMidYMid meet">

<g transform="translate(0.000000,1080.000000) scale(0.100000,-0.100000)"
fill="#000000" stroke="none">
<path d="M5376 2907 c-18 -13 -18 -20 -5 -171 l14 -158 90 -37 c355 -148 448
-187 585 -244 85 -35 180 -74 211 -87 l57 -23 31 23 32 22 106 -43 c71 -28
110 -39 119 -33 64 43 143 99 218 153 l88 64 -7 141 c-11 201 -18 213 -97 154
-148 -111 -238 -167 -257 -161 -9 3 -56 21 -105 40 l-88 35 -29 -21 c-37 -27
-42 -27 -140 12 -46 19 -131 52 -189 74 -186 72 -332 129 -472 184 -102 39
-138 58 -140 71 -3 17 -5 17 -22 5z"/>
</g>
</svg>
