<?xml version="1.0" standalone="no"?>
<!DOCTYPE svg PUBLIC "-//W3C//DTD SVG 20010904//EN"
 "http://www.w3.org/TR/2001/REC-SVG-20010904/DTD/svg10.dtd">
<svg version="1.0" xmlns="http://www.w3.org/2000/svg"
 width="1920.000000pt" height="1080.000000pt" viewBox="0 0 1920.000000 1080.000000"
 preserveAspectRatio="xMidYMid meet">

<g transform="translate(0.000000,1080.000000) scale(0.100000,-0.100000)"
fill="#000000" stroke="none">
<path d="M13077 3403 c-7 -11 -31 -292 -25 -298 7 -7 994 -45 1172 -45 l105 0
5 33 c3 17 10 89 17 159 11 125 8 178 -11 148 -7 -12 -56 -12 -336 -2 -239 8
-331 9 -341 1 -13 -11 -197 -8 -474 7 -59 3 -109 2 -112 -3z"/>
</g>
</svg>
