<?xml version="1.0" standalone="no"?>
<!DOCTYPE svg PUBLIC "-//W3C//DTD SVG 20010904//EN"
 "http://www.w3.org/TR/2001/REC-SVG-20010904/DTD/svg10.dtd">
<svg version="1.0" xmlns="http://www.w3.org/2000/svg"
 width="1920.000000pt" height="1080.000000pt" viewBox="0 0 1920.000000 1080.000000"
 preserveAspectRatio="xMidYMid meet">

<g transform="translate(0.000000,1080.000000) scale(0.100000,-0.100000)"
fill="#000000" stroke="none">
<path d="M5267 4693 c-12 -19 14 -286 30 -299 7 -6 13 -27 13 -47 0 -66 2 -67
112 -67 l100 0 -6 53 c-3 28 -8 81 -11 117 -3 36 -8 80 -11 98 l-5 32 -73 0
c-55 0 -75 4 -79 14 -3 8 -16 16 -29 18 -19 2 -24 10 -28 48 -3 26 -8 40 -13
33z"/>
</g>
</svg>
