<?xml version="1.0" standalone="no"?>
<!DOCTYPE svg PUBLIC "-//W3C//DTD SVG 20010904//EN"
 "http://www.w3.org/TR/2001/REC-SVG-20010904/DTD/svg10.dtd">
<svg version="1.0" xmlns="http://www.w3.org/2000/svg"
 width="1920.000000pt" height="1080.000000pt" viewBox="0 0 1920.000000 1080.000000"
 preserveAspectRatio="xMidYMid meet">

<g transform="translate(0.000000,1080.000000) scale(0.100000,-0.100000)"
fill="#000000" stroke="none">
<path d="M5261 7456 c-9 -11 -8 -52 3 -177 9 -90 16 -171 16 -181 0 -15 8 -18
44 -18 39 0 45 -3 48 -22 3 -23 5 -23 203 -29 110 -4 358 -9 552 -13 l352 -7
-5 53 c-2 29 -8 111 -13 181 -5 70 -10 130 -12 131 -5 5 -802 26 -959 26 -115
0 -127 2 -140 20 -12 16 -63 50 -75 50 -2 0 -8 -6 -14 -14z"/>
</g>
</svg>
