<?xml version="1.0" standalone="no"?>
<!DOCTYPE svg PUBLIC "-//W3C//DTD SVG 20010904//EN"
 "http://www.w3.org/TR/2001/REC-SVG-20010904/DTD/svg10.dtd">
<svg version="1.0" xmlns="http://www.w3.org/2000/svg"
 width="1920.000000pt" height="1080.000000pt" viewBox="0 0 1920.000000 1080.000000"
 preserveAspectRatio="xMidYMid meet">

<g transform="translate(0.000000,1080.000000) scale(0.100000,-0.100000)"
fill="#000000" stroke="none">
<path d="M5865 8098 c3 -24 9 -103 14 -175 10 -139 13 -153 36 -153 14 0 269
-61 597 -142 93 -23 171 -38 175 -35 8 8 -11 334 -19 343 -4 3 -21 9 -40 14
-262 62 -608 140 -661 150 -37 7 -74 19 -82 26 -22 22 -25 17 -20 -28z"/>
</g>
</svg>
