<?xml version="1.0" standalone="no"?>
<!DOCTYPE svg PUBLIC "-//W3C//DTD SVG 20010904//EN"
 "http://www.w3.org/TR/2001/REC-SVG-20010904/DTD/svg10.dtd">
<svg version="1.0" xmlns="http://www.w3.org/2000/svg"
 width="1920.000000pt" height="1080.000000pt" viewBox="0 0 1920.000000 1080.000000"
 preserveAspectRatio="xMidYMid meet">

<g transform="translate(0.000000,1080.000000) scale(0.100000,-0.100000)"
fill="#000000" stroke="none">
<path d="M11417 6073 c-4 -3 -7 -15 -7 -25 0 -12 -7 -18 -23 -18 -13 0 -27 -4
-33 -10 -5 -5 -183 -23 -394 -40 -212 -17 -419 -33 -462 -37 -75 -6 -76 -6
-82 -36 -3 -16 -6 -64 -6 -106 0 -42 -5 -82 -11 -88 -8 -8 -8 -17 0 -31 6 -11
11 -53 11 -93 l0 -72 88 7 c48 3 168 13 267 21 99 8 268 22 375 31 211 17 254
24 256 42 1 7 2 19 3 27 1 11 13 15 45 15 25 0 47 3 49 8 3 4 8 98 12 210 l7
202 -44 0 c-25 0 -48 -3 -51 -7z"/>
</g>
</svg>
