<?xml version="1.0" standalone="no"?>
<!DOCTYPE svg PUBLIC "-//W3C//DTD SVG 20010904//EN"
 "http://www.w3.org/TR/2001/REC-SVG-20010904/DTD/svg10.dtd">
<svg version="1.0" xmlns="http://www.w3.org/2000/svg"
 width="1920.000000pt" height="1080.000000pt" viewBox="0 0 1920.000000 1080.000000"
 preserveAspectRatio="xMidYMid meet">

<g transform="translate(0.000000,1080.000000) scale(0.100000,-0.100000)"
fill="#000000" stroke="none">
<path d="M8515 6481 c-6 -5 -140 -78 -300 -162 -159 -83 -294 -157 -300 -164
-5 -6 -38 -26 -73 -45 l-62 -33 -60 18 c-60 18 -61 18 -108 -4 l-47 -22 -235
65 c-129 36 -323 89 -430 119 -221 62 -211 60 -227 58 -21 -2 -15 -29 7 -36
12 -4 20 -15 20 -29 0 -43 22 -341 25 -345 2 -1 82 -25 177 -53 160 -46 304
-87 581 -168 l108 -31 44 25 c41 25 45 25 85 11 68 -24 58 -27 270 92 19 11
131 73 248 137 118 65 234 130 259 144 l45 27 -1 189 c-2 185 -7 226 -26 207z"/>
</g>
</svg>
