<?xml version="1.0" standalone="no"?>
<!DOCTYPE svg PUBLIC "-//W3C//DTD SVG 20010904//EN"
 "http://www.w3.org/TR/2001/REC-SVG-20010904/DTD/svg10.dtd">
<svg version="1.0" xmlns="http://www.w3.org/2000/svg"
 width="1920.000000pt" height="1080.000000pt" viewBox="0 0 1920.000000 1080.000000"
 preserveAspectRatio="xMidYMid meet">

<g transform="translate(0.000000,1080.000000) scale(0.100000,-0.100000)"
fill="#000000" stroke="none">
<path d="M5903 6634 c-3 -8 1 -20 10 -27 11 -9 18 -53 27 -187 6 -96 14 -178
18 -181 4 -4 66 -37 137 -74 72 -37 166 -87 210 -110 44 -23 121 -63 170 -89
l90 -46 59 17 c58 16 60 16 97 -5 29 -17 43 -20 61 -12 13 5 138 46 278 90
140 45 287 92 325 105 39 13 137 44 219 70 l149 47 -7 136 c-3 74 -6 161 -6
194 0 49 -3 58 -17 58 -10 0 -92 -23 -183 -51 -91 -28 -250 -77 -355 -109
-104 -32 -210 -66 -235 -75 -25 -9 -81 -28 -124 -42 l-79 -26 -43 23 c-42 24
-42 24 -101 6 l-60 -18 -317 160 c-248 126 -318 158 -323 146z"/>
</g>
</svg>
