<?xml version="1.0" standalone="no"?>
<!DOCTYPE svg PUBLIC "-//W3C//DTD SVG 20010904//EN"
 "http://www.w3.org/TR/2001/REC-SVG-20010904/DTD/svg10.dtd">
<svg version="1.0" xmlns="http://www.w3.org/2000/svg"
 width="1920.000000pt" height="1080.000000pt" viewBox="0 0 1920.000000 1080.000000"
 preserveAspectRatio="xMidYMid meet">

<g transform="translate(0.000000,1080.000000) scale(0.100000,-0.100000)"
fill="#000000" stroke="none">
<path d="M5333 7210 c0 -25 2 -35 4 -22 2 12 2 32 0 45 -2 12 -4 2 -4 -23z"/>
<path d="M5341 7115 c-1 -28 8 -116 20 -195 11 -80 24 -167 28 -195 l6 -50 62
3 c57 2 62 1 65 -20 4 -28 0 -28 313 -4 121 9 312 23 425 31 113 9 251 18 307
22 56 3 106 9 112 12 7 5 7 64 -2 191 l-12 185 -40 -2 c-172 -9 -849 -59 -985
-73 -110 -11 -150 -4 -150 28 0 11 -10 13 -53 8 -63 -8 -73 0 -86 65 l-9 44
-1 -50z"/>
</g>
</svg>
