<?xml version="1.0" standalone="no"?>
<!DOCTYPE svg PUBLIC "-//W3C//DTD SVG 20010904//EN"
 "http://www.w3.org/TR/2001/REC-SVG-20010904/DTD/svg10.dtd">
<svg version="1.0" xmlns="http://www.w3.org/2000/svg"
 width="1920.000000pt" height="1080.000000pt" viewBox="0 0 1920.000000 1080.000000"
 preserveAspectRatio="xMidYMid meet">

<g transform="translate(0.000000,1080.000000) scale(0.100000,-0.100000)"
fill="#000000" stroke="none">
<path d="M5455 6998 c4 -13 15 -101 24 -197 l16 -175 165 -178 c141 -153 168
-178 187 -173 13 3 43 8 67 11 41 6 45 4 62 -24 14 -24 21 -29 31 -20 12 9
108 29 418 83 44 8 118 21 165 30 47 9 121 22 165 30 185 32 358 65 361 68 7
7 -14 369 -23 377 -4 5 -118 -11 -253 -35 -449 -79 -654 -116 -720 -129 -138
-29 -138 -29 -166 -1 -25 25 -27 25 -87 14 l-62 -11 -170 176 c-93 97 -174
176 -179 176 -4 0 -5 -10 -1 -22z"/>
</g>
</svg>
