<?xml version="1.0" standalone="no"?>
<!DOCTYPE svg PUBLIC "-//W3C//DTD SVG 20010904//EN"
 "http://www.w3.org/TR/2001/REC-SVG-20010904/DTD/svg10.dtd">
<svg version="1.0" xmlns="http://www.w3.org/2000/svg"
 width="1920.000000pt" height="1080.000000pt" viewBox="0 0 1920.000000 1080.000000"
 preserveAspectRatio="xMidYMid meet">

<g transform="translate(0.000000,1080.000000) scale(0.100000,-0.100000)"
fill="#000000" stroke="none">
<path d="M9333 6328 c-94 -98 -205 -216 -241 -257 -12 -14 -22 -30 -22 -36 0
-6 -17 -28 -38 -48 l-39 -38 -72 12 c-73 11 -73 11 -101 -16 -25 -24 -34 -27
-72 -21 -24 3 -160 22 -303 41 -143 20 -356 50 -473 66 -118 17 -226 29 -240
27 -27 -3 -44 -28 -18 -28 8 0 17 -4 21 -9 3 -5 9 -91 14 -191 5 -100 11 -182
13 -184 1 -1 235 -35 518 -75 283 -40 517 -75 519 -77 3 -3 19 9 36 26 32 31
32 31 96 21 76 -13 40 -43 308 259 l191 215 0 202 c0 112 -2 203 -4 203 -3 0
-45 -42 -93 -92z"/>
</g>
</svg>
