<?xml version="1.0" standalone="no"?>
<!DOCTYPE svg PUBLIC "-//W3C//DTD SVG 20010904//EN"
 "http://www.w3.org/TR/2001/REC-SVG-20010904/DTD/svg10.dtd">
<svg version="1.0" xmlns="http://www.w3.org/2000/svg"
 width="1920.000000pt" height="1080.000000pt" viewBox="0 0 1920.000000 1080.000000"
 preserveAspectRatio="xMidYMid meet">

<g transform="translate(0.000000,1080.000000) scale(0.100000,-0.100000)"
fill="#000000" stroke="none">
<path d="M12358 4579 c-27 -15 -24 -80 3 -98 18 -11 23 -11 30 1 12 18 11 51
-1 43 -14 -9 -12 7 5 29 24 31 0 47 -37 25z"/>
<path d="M12120 4288 c0 -11 -6 -15 -19 -11 -16 4 -19 1 -14 -17 5 -18 10 -20
37 -14 40 8 50 18 41 41 -8 17 -8 17 -12 0 -5 -18 -5 -18 -19 0 -12 16 -13 16
-14 1z"/>
<path d="M12173 4205 c16 -9 31 -14 35 -11 8 9 0 14 -33 21 l-30 6 28 -16z"/>
</g>
</svg>
