<?xml version="1.0" standalone="no"?>
<!DOCTYPE svg PUBLIC "-//W3C//DTD SVG 20010904//EN"
 "http://www.w3.org/TR/2001/REC-SVG-20010904/DTD/svg10.dtd">
<svg version="1.0" xmlns="http://www.w3.org/2000/svg"
 width="1920.000000pt" height="1080.000000pt" viewBox="0 0 1920.000000 1080.000000"
 preserveAspectRatio="xMidYMid meet">

<g transform="translate(0.000000,1080.000000) scale(0.100000,-0.100000)"
fill="#000000" stroke="none">
<path d="M12870 4279 c0 -31 -24 -49 -93 -67 -62 -17 -62 -17 -65 -57 -3 -28
-12 -47 -32 -65 l-29 -26 22 -23 c15 -16 18 -25 10 -28 -9 -3 -10 -10 -3 -24
8 -15 7 -19 -5 -19 -8 0 -15 -7 -15 -15 0 -9 -10 -15 -27 -16 -68 -3 -129 -18
-144 -35 -9 -11 -8 -14 2 -15 8 -1 19 -2 24 -3 17 -2 69 -39 91 -64 18 -22 24
-24 50 -15 26 9 29 15 32 56 3 42 6 48 30 53 15 3 51 12 80 20 49 14 52 16 52
47 0 18 5 38 10 43 6 6 15 62 20 125 12 144 12 149 0 149 -5 0 -10 -9 -10 -21z"/>
<path d="M12590 4030 c0 -5 5 -10 10 -10 6 0 10 5 10 10 0 6 -4 10 -10 10 -5
0 -10 -4 -10 -10z"/>
<path d="M12630 4020 c0 -5 7 -10 16 -10 8 0 12 5 9 10 -3 6 -10 10 -16 10 -5
0 -9 -4 -9 -10z"/>
</g>
</svg>
